<svg id="Laag_1" data-name="Laag 1" xmlns="http://www.w3.org/2000/svg" viewBox="0 0 434.06 153.07"><defs><style>.cls-1{fill:#1aa7e0;}.cls-2{fill:none;}.cls-3{fill:#1d1d1b;}</style></defs><title>evoke v3</title><rect class="cls-1" x="292.92" y="2.57" width="14.91" height="152.42" transform="translate(-16.7 17.86) rotate(-3.8)"/><path class="cls-2" d="M169.35,75.09c13.83-29.51-7.72,16.47-24.57,53.31q-1.74,4-4.16,9.67-1.65,3.59-4,3.58t-4.35-4.54q-.28-.5-9.05-20.47T114,95.7q-11.7-25-13.06-28.93" transform="translate(-12.14 -2.25)"/><path class="cls-3" d="M153.73,89.33l-.4.64A48.31,48.31,0,0,1,157,83.46c-4.84,3.74-9.79,8.52-6.12,14.84-3.08-.92-6.63,3.25-6,3.67a23,23,0,0,1-.08,3.63,24.18,24.18,0,0,0,.25-2.42,24.18,24.18,0,0,1-.25,2.42,30.51,30.51,0,0,1-3.28,10.65c-.43.85-.88,1.7-1.35,2.54l-.18.32c-.07.12-.07.08-.1.13l-.15.16c-.11.11-.21.21-.32.3a2.78,2.78,0,0,1-1.21.65c-.39.11-.82.39-1.18.17a1.34,1.34,0,0,1-.55-1,4.39,4.39,0,0,1,0-1.37,4.94,4.94,0,0,1,.12-.51,7.3,7.3,0,0,0-.21.94c-.36,1.28-1,2-1.54,2a9.64,9.64,0,0,0-.73,2.11V122c-1,1-1.47-.23-2.14-.37a1.11,1.11,0,0,0,.45-1.29l-.31.42a6.25,6.25,0,0,0-.41-1.12c-.31-.67-.7-1.46-1.06-2.17-.76-1.48-1.48-2.83-2-4.19a1.19,1.19,0,0,1,.09-1l-1.61-2.33c.93-.18-.19-2.45.88-1.47-1.84-1.46-2.09-3.68-3.92-5-1.5-3.22-3.17-6.48-5-9.69a107.74,107.74,0,0,0-6.16-9.15l-.24.31c-1.62-2-4.22-3.32-5-6.38-2-1.49-3.93-4.08-6-4.11-1.28-2.25-2.58-2.75-4-5-.32.49-.82,0-1.3-.51L96,68.47a1.07,1.07,0,0,0-.27-.17c-.17,0-.3,0-.38.38a5.88,5.88,0,0,0-.13,1.39,2.31,2.31,0,0,0,.17.76,2.41,2.41,0,0,1,.11,1.68l.28-.16a118.55,118.55,0,0,0,5.81,19.39c2.58,3.64,4.19,8.51,6.16,12.51a130,130,0,0,0,7.42,12.45c.65.81.21,1.8.15,2.76,1,1.73,2,3.9,3,6.05.76,1.63,1.52,3.28,2.27,4.91s1.63,3.36,2.44,4.88c-.05-.12-.09-.26-.12-.35.83,1.66,1.33,3.43,2,5.09a13.61,13.61,0,0,0,2.37,4.25c.11-.34.41,0,.6,0,0,.48.71,1.38,1.78,2.1a12.46,12.46,0,0,0,4.1,1.81,7.8,7.8,0,0,0,2.93.15,6.79,6.79,0,0,0,2.63-1c1.31-.88,1.9-1.69,2.1-1.59l.49-.66a47.35,47.35,0,0,1,5.7-5.94,43.63,43.63,0,0,0,3.13-3.11,40.55,40.55,0,0,0,2.47-5,33.56,33.56,0,0,0,.32-5c.52-.47.46-.64.4-1a1.14,1.14,0,0,1,.09-1c3.25-1,2.83-2.62,1.53-1.94a38.2,38.2,0,0,1,2-4.94c.15-.77.29-1.54.41-2.33s.57-.86,1.26-.91c.37-1.66.74-1,1.7-2.44,1,0,.56-4.58,1-4.91v.31c1-1.77,3.12-2.27,4-4,2.9-4.72,4.83-10.45,7.25-14.94-.82-.44-.29,1.11-1.43.64,1.41-2.66,3.74-4.92,5.16-7.61a4.94,4.94,0,0,1,1.54-.9c.72-.73-.17-.7.24-1.3l.81.27c-.19-1.23,1.48-1,1.58-2-.29-.19-.18-.53,0-.84.82.36.4-1,1.11-.6l-.05,0c.1-.18.11-.34.36-.51-.12-.5-.77-4.9-.94-5.45a1,1,0,0,0,.23-.14l0,0,.06-.14,0-.08v0l.16-.41a7,7,0,0,0,.51-2.46c-3.15-16-24.38-2.69-16.3-5.38-.29.45-.31.53-.38.64l-.09.18,0,0-.06.15,0,0a1,1,0,0,0,0,.12.59.59,0,0,0,0,.19.79.79,0,0,0,.13.31c.14.16.33.23.47.11l-.34.61,0-.1-.33.6a.8.8,0,0,1-.84-.31,1.22,1.22,0,0,1-.22,1.23c.48-.37,1-.78,1.63-1.17.3-.2.62-.39.94-.58l.24-.15.07-.05,0,0,0-.06,0,0h0l.06-.11c5,1.46-11.1-3.58,12.74,1.05.26,7.79-.27,3.24-.16,4.75l0,.09v0c-.13.24-.11.17-.15.22l-.06,0a4.86,4.86,0,0,1-.49.27.71.71,0,0,1,.08-.42l.07-.14,0-.13,0-.06,0-.1.13-.35c-4,.92,9.8-1.88-9.74-7.33-2.77,2.57-1.48,1.74-2,2.17l-.14.26v0l-.06.1,0,.08c0,.08-.1.14-.15.21a3.11,3.11,0,0,0-.5.79,10.25,10.25,0,0,0-2.54,1.89c0,.22.8.77.2,1-.72-.08-.21.5-.83.64-.13-.56.21-.9.43-1.3-.76-.27-1,.78-1.34,1,.16.26-.46,1-.49,1.56-.6-.55-.64.2-1.16.32-.25.31-.07.66.25.64.71.47,1.09-1.15,1.68-.3-.43,0-.62.69-.75,1.06.41.2.43-.09.72.33-.28.36,0,1-.52,1-.08-.13.07-.27.14-.38-.29.51-1.41-4.12-1.48-3.32.45,0,1.09,4.14,1.28,3.8.35-.22.65.59,1,.33l-.34-.61a1.08,1.08,0,0,1,1.4.08c-.42.72-1.85-3.49-1.73-2.65l.32-.17c.15.41,0,1.25-.53,1.32.41.2.38.64.39,1l-.12.08c.06.41-.25.81.4.86.8-1.88,3.64,3.19,4.72,1.51-1.27.32-.82-.69-.56-1.53a1.89,1.89,0,0,0,1.48-.53c.16-.53-.2-.45-.39-.65.33-.18.75-.62,1.2-.32-.39-.65.65-.44.67-1s-.26-.09-.4-.5a19.46,19.46,0,0,1,1.16-1.83c.54,0,1.61-.17,2.11.57-.52.88-1-.89-1.27.15,1.22.07-.12,1,.58,1.52.61-.09.91-.71,1-1.29l-.18,0c.07-.52.29-1.53,1.07-1.77.31.29.68.2.61.58l.36-.58h0l-.75-.37-.84-.42-.14-.06a.06.06,0,0,0-.06,0l-.38,0v-.15a.11.11,0,0,1,.09,0l-.17-.08L172.12,65l-.34-.16h0l0,0,.07.07.09,0h0v0l1,.44.62.25c.08,0,0,0,0,0s0,0,0,0l0,.11.38.08c.08,0,.11,0,.27.09l1.25.62h0l0,0-.52-.25-.79-.4-.12,0s0,0-.08,0l-.35-.19,0,0s.08,0,.08,0l-.17-.07L172.17,65l-.08,0h0s0,0,0,.06a.29.29,0,0,1,0,.13.4.4,0,0,1-.09.21.91.91,0,0,1-.41.28c-.42-.11.06,4.1-.14,3.89-.2.46-.83.3-.64.92.29.2.7-5,.55-4.29-.6.19-.47,6-1.33,6-.13.35-.24.8.19.9-.46.48-.67-.52-1.22-.28.06,0,.21.06.14.18l-.68.16c.2,1.16-1.19,2.09-.82,3.39a4.85,4.85,0,0,1-1-1.89h.25c-.08-.14,0-.69-.38-.86a1.73,1.73,0,0,0-.57,1.74,3.36,3.36,0,0,1-.47.17l.16.07c-.33.08-.36,0-.48-.1a.27.27,0,0,1-.07-.08c-1.31-.18-.31,2.55-1.38,3.31,0,.38.18.12.22.6a18.07,18.07,0,0,0-2.4,2.39c.33.58.51.7,1.22.51l-.55.76c-1-1.37-2,1-2.88-.47a1.12,1.12,0,0,0-.71,1.14c.3.2.8.52.52,1.11-.81.61-.56.49-1.3,1-.5,0-.55-.37-.91-.5.07,1.3-1.35.48-1.73,1.5-.16.68-.67,1.92.07,2.3C154.85,90,154.3,89.7,153.73,89.33Z" transform="translate(-12.14 -2.25)"/><path class="cls-2" d="M258.66,108.34q-.29-18.77-9.09-30.67-9.39-12.76-23-12.09-10.54.48-14.41,6.29-5.81,8.61-5.81,24.38a77.2,77.2,0,0,0,6.19,30.57,31.74,31.74,0,0,0,10.26,13.64,20.7,20.7,0,0,0,12.48,3.78q7.74,0,11.71-2.81,5.89-4.06,9.09-12.48Q258.86,121.69,258.66,108.34Z" transform="translate(-12.14 -2.25)"/><path class="cls-3" d="M241.74,60.41c-.34-.2-.68-.41-1-.58A26.39,26.39,0,0,1,250,66.54a24.13,24.13,0,0,0-4-5.48,19.36,19.36,0,0,0-6-4.1,14.07,14.07,0,0,0-6.82-1.11,9.5,9.5,0,0,0-5.74,2.65,3.42,3.42,0,0,0-1.7-2,8.51,8.51,0,0,0-3.06-1.11,11.5,11.5,0,0,0-3.16-.12c-.9.11-1.48.31-1.47.51a58.72,58.72,0,0,0-5.24,3.44c1.23-.88,2.45-1.6,3.67-2.31-1.22.71-2.44,1.43-3.67,2.31a31.7,31.7,0,0,0-4.12,3.6,23.74,23.74,0,0,0-3.39,4.49,75.56,75.56,0,0,0-8.09,23.34,77.29,77.29,0,0,0-.81,13.87c.11,5.52.86,11.09,1.21,14.18.12.89.23,1.79.41,2.68-.14-1.52-.13-1.52-.24-3,1.75,3.43,3.59,6.34,5.24,9.13a6.61,6.61,0,0,0,.74-2.39c.08.54.18,1.08.28,1.61a7.2,7.2,0,0,1,2.27,2.47,18,18,0,0,0,2,2.81c-.78,0-.33,1.24.17,2.33l.18-.63a25.53,25.53,0,0,0,3.95,5.91,47.62,47.62,0,0,0,5,4.83,2.17,2.17,0,0,1,.73,1.21,26.6,26.6,0,0,0,4,1.88c-.37.33.35.94.93,1.37s1,.73-.12.57c1.77.19,3.38.61,5,.88a10.21,10.21,0,0,0,4.67-.07,33.25,33.25,0,0,0,7.53-.41,22.48,22.48,0,0,0,8-2.81,15.71,15.71,0,0,0,1.9-1.34c.51-.42,1-.88,1.5-1.36a22.84,22.84,0,0,0,2.61-3.06,25.53,25.53,0,0,0,3.42-6.77l-.41.05a21.78,21.78,0,0,0,.7-4.9,17.18,17.18,0,0,1,1-5.1c-.61-2.9-.91-6.64-2.77-7.79-.07-2.94-1-4.14-1.5-7-.95.75-1.18-2.77-1.91-1.34-1.32,1.87-.19,2-1.29,3.51l.32,0a90.52,90.52,0,0,1-2.66,10c-.27.74-.54,1.46-.82,2.11s-.57,1.2-.91,1.86a26.71,26.71,0,0,1-2.21,3.61,8.08,8.08,0,0,1-2.85,3.92,4.06,4.06,0,0,1-1.33.76,18.81,18.81,0,0,1-2,.57,22.94,22.94,0,0,1-3.13.57c-.62.07-1.1.14-1.6.17s-1,.06-1.46.07a15.43,15.43,0,0,1-5.06-.73c-.75-.15-.78-1.18-1-2a14.88,14.88,0,0,1-3.85-3.9,56.78,56.78,0,0,1-3.34-5.54,1.2,1.2,0,0,1,.05.23c-1.13-2.28-.85-4.36-1.73-6.61-.26.09-.38-.26-.57-.4.55-.39-1.14-3.57-2.51-7.06s-2.51-7.23-2.18-7.7a4.93,4.93,0,0,1-.2-.8A32,32,0,0,1,214,93.22a43.46,43.46,0,0,0,1.81-6.74c-.43-1-.74-2.06-1.21-3,.71-.56-.29-1,.11-1.76,1.54-.68,2.16-1.25,2.26-1.66s-.35-.64-1-.31a11.46,11.46,0,0,1,1.87-4l.09-.14a5.37,5.37,0,0,1,.36-1.28c.13-.4.54-.23,1,.17.65-.8.7-.13,1.83-.32.29.37.84-.22,1.66-.84s1.79-1.26,2-1.15l-.25.16a4.91,4.91,0,0,1,2.6.82,6.06,6.06,0,0,0,2.16,1,25.39,25.39,0,0,1,6,2.11,16.35,16.35,0,0,1,5.16,4.26c.72-.6-.84-.58,0-1.48a15,15,0,0,1,2.16,3.71c.57,1.36,1,2.69,1.65,4a4.33,4.33,0,0,1-.28,1.65c.07.93.62.27.79.91l-.73.43c1,.57-.32,1.61.31,2.28.34-.08.49.21.57.52-.83.3.38.89-.41,1.11h.06a.83.83,0,0,1,.07.56c.21.11,1.12.82,2.06,1.59s1.83,1.64,2,1.81l-.11.21c.14.54.84.66.93.31l.08.7-.07-.07.06.7a.76.76,0,0,1-.86.21,1.25,1.25,0,0,1,.5,1.17,36.71,36.71,0,0,1,1.57-4c.39.42.11,1.37.29,1.87a13.32,13.32,0,0,0-1.07,3.11c.08.21,1.1.24.71.79-.67.32.07.57-.38,1-.42-.44-.28-.92-.3-1.41-.79.17-.44,1.23-.63,1.62.28.15.08,1.1.33,1.67-.79-.21-.47.5-.86.86-.08.4.24.64.51.47.86.09.42-1.6,1.34-1.1-.39.17-.21,1-.17,1.37.46,0,.34-.3.79,0-.08.48.49,1,0,1.26-.13-.09-.06-.29-.05-.43,0,.31-.8-.52-1.53-1.29s-1.48-1.47-1.32-1.1c.19-.11.95.68,1.6,1.51s1.28,1.65,1.29,1.44c.22-.38.84.27,1-.13l-.57-.43a1.05,1.05,0,0,1,1.28-.61c0,.46-.83-.18-1.57-.8s-1.45-1.23-1.19-.87l.2-.32c.31.3.64,1.15.15,1.5.46,0,.63.42.81.78l-.08.13c.25.37.15.9.75.64-.07-1.11,1.1-.78,2.32-.42s2.48.76,2.57-.4c-1,1-1-.3-1.19-1.29a2,2,0,0,0,1-1.32c-.12-.62-.39-.35-.66-.45.22-.36.35-1,.88-1-.67-.44.33-.82.06-1.39s-.27.06-.61-.28c0-.77-.06-1.87,0-2.5.45-.3,1.21-1.18,2.06-.76.08,1.22-1.32-.26-1,.95,1.06-.69.45,1.06,1.33,1.18a1.89,1.89,0,0,0,.12-2l-.13.16a3,3,0,0,1-.19-2.49c.42.08.66-.26.84.17l-.09-.86c-.14-.08-.29-.16-.33.1a.85.85,0,0,1-.12-1.11c.19-.09-.49-1.11-1.21-2a12.93,12.93,0,0,1-1.35-1.77c-.19-.57.37-.9-.22-1.33-.18,0,.64,1.27,1.35,2.48A13.27,13.27,0,0,0,259,94c.08-.15-.11-.63-.42-1.25s-.8-1.38-1.29-2.13c-.95-1.49-2-2.87-1.65-3.19-.19-.4-.48-.86-.84-.61-.09-.77.85-.1,1-.75-.06,0-.18.13-.23,0l.3-.7a4.14,4.14,0,0,1-1.1-1.77,3.19,3.19,0,0,0-1.33-1.68,4.73,4.73,0,0,1,2.24.62l-.14.23c.18,0,.59.59,1,.39a2.53,2.53,0,0,0-1.22-1.95c0-.19.05-.41.09-.57a1.1,1.1,0,0,1-.14.09c.09-.36.15-.36.34-.35h.12c.42-.52-.15-1.13-.85-1.77s-1.56-1.29-1.72-2.07c-.4-.24-.2.09-.71-.2a16.17,16.17,0,0,0-1.61-4c-.74,0-.92.09-1,.91-.21-.33-.41-.67-.65-1,1.84-.15-.55-2.59,1.33-2.7a2,2,0,0,0-1.22-1.43,1,1,0,0,1-1.43,0c-.65-1.17-.52-.85-1.06-1.88.09-.53.52-.43.72-.75-1.73-.54-.54-1.75-2-2.6-.92-.49-2.81-1.43-3.22-.72C241.08,61.5,241.32,61,241.74,60.41Z" transform="translate(-12.14 -2.25)"/><path class="cls-2" d="M341,130.56c30.79,10.69-8.9-2.67-47.28-15.61q-4.12-1.33-10.06-3.14c-2.48-.85-3.81-2-4-3.58s1.21-3.07,4.07-4.8q.47-.33,19.42-11.11T323,81c15.74-9.49,30.31-18,32.85-19.16" transform="translate(-12.14 -2.25)"/><path class="cls-3" d="M327.44,117.65l-.68-.33a47.73,47.73,0,0,1,6.86,2.9c-4.24-4.39-9.51-8.79-15.4-4.46.59-3.16-3.93-6.24-4.28-5.53a24.82,24.82,0,0,1-3.61.32c.81,0,1.61,0,2.43,0-.82,0-1.62,0-2.43,0a26.11,26.11,0,0,1-5.52-.56c-.46-.09-.91-.2-1.36-.31l-1.2-.32a4,4,0,0,1-.88-.29c-1.12-.51-1.79-1.29-1.64-1.89a3,3,0,0,1,0-.55,1.1,1.1,0,0,1,.2-.44,1.51,1.51,0,0,1,.65-.43,4.63,4.63,0,0,1,1.51-.28,3.3,3.3,0,0,1,1.1.11c.16,0,.26.11.4.14a7.61,7.61,0,0,0-.72-.25,1.6,1.6,0,0,1-.88-.9,1.76,1.76,0,0,1-.05-1.11,4.62,4.62,0,0,0-1.54-.88H301a1.35,1.35,0,0,1,.18-1.47A15.49,15.49,0,0,0,303,99.38c.13.72,1,.38,1.77.06l-.52-.23a22.76,22.76,0,0,0,2.12-1.12c.73-.43,1.47-.9,2.19-1.37,1.44-.93,2.83-1.86,4.11-2.54a1.18,1.18,0,0,1,1,0l2.15-1.84c.29.91,2.42-.44,1.57.72,1.25-2,3.43-2.46,4.57-4.41,1.51-.92,3.06-1.87,4.55-2.87s2.9-2,4.38-3.15c2.92-2.21,5.79-4.57,8.52-7.08l-.33-.21c1.87-1.82,2.88-4.53,5.85-5.57,1.28-2.18,3.67-4.31,3.48-6.42,2.11-1.51,2.46-2.85,4.55-4.54a.39.39,0,0,1-.2-.57,2.67,2.67,0,0,1,.57-.78c.13-.14.26-.27.36-.39a.81.81,0,0,0,.15-.29c0-.17-.06-.29-.42-.33a3.69,3.69,0,0,0-2.17.29,2.29,2.29,0,0,1-1.63.27l.19.26A119.83,119.83,0,0,0,331.14,65a37.88,37.88,0,0,1-5.73,3.88c-2,1.18-4.08,2.28-6.1,3.64l-3.11,2.16c-1,.73-2,1.46-3,2.2-2,1.48-3.87,3-5.5,4.35-.73.73-1.77.4-2.73.44-1.57,1.14-3.47,2.26-5.41,3.41-1,.59-2.06,1.23-3.07,1.86s-2,1.28-3,2a1.35,1.35,0,0,1,.25-.1c-3,1.9-6.36,2.69-9.58,4.72.28.15-.21.45-.32.68-.43-.09-1.8.6-3.37,1.84a16.31,16.31,0,0,0-3.91,4.5,23.15,23.15,0,0,0-1.9,4,18.48,18.48,0,0,1-.86,2.42v.84a8.27,8.27,0,0,0,.45,4.2,16.6,16.6,0,0,0,.63,1.55l.33.7a6.65,6.65,0,0,0,.72.64,36.47,36.47,0,0,0,6.85,4.88,28.69,28.69,0,0,0,4.75.38c.14.44.69.43,1.17.41a3.28,3.28,0,0,1,1.66.18,4.9,4.9,0,0,0,2.87,2.59c.78.2,1-.23.4-.92.75.16,1.47.35,2.17.56l1,.32.9.3c.85.29,1.67.6,2.46.82s1.57.12,2.37.16.91.48,1,1.16c1.7.19,1,.63,2.61,1.43.11,1,4.61.06,5,.48l-.32,0c1.87.8,2.6,2.86,4.45,3.56,5,2.38,10.92,3.67,15.66,5.58.35-.87-1.13-.16-.8-1.35,2.81,1.11,5.32,3.17,8.15,4.28a5.05,5.05,0,0,1,1.07,1.43c.82.64.69-.24,1.33.1l-.18.83c1.21-.32,1.15,1.37,2.2,1.35.15-.31.51-.24.83-.1-.26.85,1,.28.75,1l0-.07c.19.09.35.08.55.3.25-.08,1.45-.41,2.71-.74.32-.08.63-.17,1-.23a1.84,1.84,0,0,1,.29,0h.26l.23,0,.23,0,.12,0h.11c.21.05.44.09.69.13a9.68,9.68,0,0,0,1.95.07,9.52,9.52,0,0,0,6.14-2.76,9.6,9.6,0,0,0,2.12-3.22,9.47,9.47,0,0,0,.64-2.77,9.19,9.19,0,0,0,0-1.87c0-.24-.06-.48-.1-.66l-.1-.44a10.14,10.14,0,0,0-.67-1.85,9.54,9.54,0,0,0-4.35-4.39l-.35-.16h0l-.34-.09-.17,0h-.08a3.86,3.86,0,0,0-1.2.2l-.14-.2c-.56-.18-1,.37-.75.63l-.65-.29.1,0-.64-.28a.8.8,0,0,1,.22-.86,1.26,1.26,0,0,1-1.26-.1,23.86,23.86,0,0,1,2.68,3.32c-.58.11-1.22-.62-1.74-.7a10,10,0,0,0-2.16-2.35c-.21,0-.68.87-1,.3,0-.73-.52-.16-.73-.76.55-.19.92.11,1.35.3.19-.79-.89-.9-1.16-1.23-.24.18-1-.36-1.61-.34.49-.65-.26-.62-.44-1.12-.33-.21-.66,0-.61.31-.39.76,1.26,1,.47,1.65,0-.44-.74-.55-1.13-.64-.16.43.14.42-.25.75-.39-.24-1,.13-1.1-.41.12-.09.27.05.39.1-.53-.24,3.95-1.82,3.16-1.81.05.45-4,1.5-3.66,1.66.25.33-.52.71-.22,1l.56-.4a1.08,1.08,0,0,1,.07,1.4c-.76-.34,3.29-2.2,2.46-2l.2.3c-.39.18-1.24.17-1.37-.4-.15.43-.59.45-1,.5L344,124c-.4.11-.83-.15-.81.49,2,.61-2.8,3.95-1,4.85-.46-1.22.6-.88,1.46-.71a1.89,1.89,0,0,0,.68,1.41c.54.11.42-.24.61-.45.21.32.69.68.44,1.16.61-.46.51.61,1.06.57s.06-.27.46-.45c.61.28,1.47.68,1.94,1,0,.54.33,1.58-.36,2.16-.93-.44.78-1.06-.27-1.25.05,1.22-1,0-1.46.73a1.41,1.41,0,0,0,1.38.88l-.06-.18c.53,0,1.56.14,1.86.9-.25.33-.13.7-.51.66l.62.31c.13-.09.25-.18.1-.34.41-.18.65.09.79.4,0,0,0,.08.13.1h.08s0,0,0,0l.27-.58.13-.3c0-.07,0-.12,0-.18a.65.65,0,0,1,.21-.6.6.6,0,0,1,.24-.11.2.2,0,0,1-.24-.15.47.47,0,0,1,.22-.4l.15-.12.07-.32.14-.64.06-.27h0s0,0-.05,0l-1.33.22a7.46,7.46,0,0,1-1.88.24c-.48-.14-.4-.79-1-.53-.15.32,5,.11,4.26,0-.15-.51-6,.28-6-.58-.36-.09-.82-.14-.87.29-.53-.39.44-.72.14-1.24,0,.06,0,.22-.16.16l-.24-.65c-1.13.32-2.21-.95-3.45-.44a4.89,4.89,0,0,1,1.75-1.21l0,.26c.13-.1.69-.07.81-.48a1.71,1.71,0,0,0-1.78-.37,3.19,3.19,0,0,1-.23-.45c0,.06,0,.11,0,.17-.12-.32-.09-.36,0-.49a.27.27,0,0,1,.07-.08c0-1.32-2.57,0-3.44-1-.37.06-.1.19-.57.29a17.77,17.77,0,0,0-2.64-2.12c-.54.39-.63.58-.37,1.27l-.81-.46c1.25-1.1-1.19-1.85.14-2.92a1.12,1.12,0,0,0-1.21-.58c-.16.33-.43.85-1,.65a16.1,16.1,0,0,1-1.11-1.19c0-.5.3-.59.39-1-1.28.21-.62-1.29-1.68-1.55-.69-.09-2-.46-2.27.31C327,118.83,327.14,118.25,327.44,117.65Z" transform="translate(-12.14 -2.25)"/><path class="cls-3" d="M83.2,89a19.31,19.31,0,0,1-2.3,9.36q-2.28,4.23-8.11,7.61t-15.88,5.79a184.43,184.43,0,0,1-25.51,3.8q0,9.17,4.31,13.55t13.16,4.39a28.64,28.64,0,0,0,9.2-1.24,33.9,33.9,0,0,0,6.18-2.76q2.56-1.51,4.54-2.75a8.08,8.08,0,0,1,4.39-1.25,4.54,4.54,0,0,1,3.57,1.71l5.13,6.06a83.61,83.61,0,0,1-8.47,6.95,46.84,46.84,0,0,1-8.5,4.81,42.25,42.25,0,0,1-9.24,2.8,58.82,58.82,0,0,1-10.53.89,37.56,37.56,0,0,1-13.55-2.33,29.13,29.13,0,0,1-10.4-6.64,29.76,29.76,0,0,1-6.68-10.32,36.57,36.57,0,0,1-2.37-13.48,49.81,49.81,0,0,1,3.14-17.51,46.41,46.41,0,0,1,8.93-14.87,43.73,43.73,0,0,1,14-10.33,42.35,42.35,0,0,1,18.37-3.88,35.65,35.65,0,0,1,11.69,1.74,25.69,25.69,0,0,1,8.31,4.59,19.42,19.42,0,0,1,5,6.32A16.14,16.14,0,0,1,83.2,89ZM55.63,83a20.9,20.9,0,0,0-7.81,1.44,21.47,21.47,0,0,0-6.48,4,25,25,0,0,0-5,6.29A36.05,36.05,0,0,0,33,102.85q10.41-1.23,16.77-2.67a48.88,48.88,0,0,0,9.87-3.11,10.62,10.62,0,0,0,4.65-3.57,7.66,7.66,0,0,0,1.17-4.08A5.23,5.23,0,0,0,65,87.13a6,6,0,0,0-1.75-2.06,9.57,9.57,0,0,0-3.07-1.51A15.11,15.11,0,0,0,55.63,83Z" transform="translate(-12.14 -2.25)"/><path class="cls-3" d="M446.2,80.27a19.63,19.63,0,0,1-2.33,9.5q-2.33,4.31-8.24,7.73t-16.13,5.88a186.88,186.88,0,0,1-25.91,3.87q0,9.3,4.38,13.76t13.37,4.45a29.25,29.25,0,0,0,9.35-1.26,34.21,34.21,0,0,0,6.27-2.8c1.73-1,3.27-2,4.61-2.8a8.24,8.24,0,0,1,4.46-1.26,4.61,4.61,0,0,1,3.62,1.74l5.21,6.15a86.25,86.25,0,0,1-8.6,7.06,48.32,48.32,0,0,1-8.63,4.89,43.28,43.28,0,0,1-9.39,2.84,59.61,59.61,0,0,1-10.69.9,38.47,38.47,0,0,1-13.76-2.36,29.77,29.77,0,0,1-10.57-6.75,30.14,30.14,0,0,1-6.78-10.49A36.91,36.91,0,0,1,374,107.64a50.5,50.5,0,0,1,3.2-17.79,46.91,46.91,0,0,1,9.07-15.1,44.42,44.42,0,0,1,14.19-10.49,43,43,0,0,1,18.66-3.94A36.12,36.12,0,0,1,431,62.09a26.07,26.07,0,0,1,8.44,4.65,19.76,19.76,0,0,1,5,6.43A16.36,16.36,0,0,1,446.2,80.27Zm-28-6.07a21.14,21.14,0,0,0-7.93,1.46,21.61,21.61,0,0,0-6.58,4.1,25.43,25.43,0,0,0-5.05,6.39,36.54,36.54,0,0,0-3.39,8.24q10.56-1.26,17-2.72a49,49,0,0,0,10-3.16q3.56-1.7,4.73-3.63a7.75,7.75,0,0,0,1.19-4.14,5.4,5.4,0,0,0-.55-2.32,6,6,0,0,0-1.78-2.09,9.72,9.72,0,0,0-3.11-1.54A15.68,15.68,0,0,0,418.2,74.2Z" transform="translate(-12.14 -2.25)"/></svg>